<?xml version="1.0" encoding="utf-8"?>
<!-- Generator: Adobe Illustrator 26.0.1, SVG Export Plug-In . SVG Version: 6.00 Build 0)  -->
<svg version="1.1" id="Capa_1" xmlns="http://www.w3.org/2000/svg" xmlns:xlink="http://www.w3.org/1999/xlink" x="0px" y="0px"
	 viewBox="0 0 256.34 371.11" style="enable-background:new 0 0 256.34 371.11;" xml:space="preserve">
<style type="text/css">
	.st0{fill:#33CCCC;}
	.st1{fill:#3AB5B1;}
	.st2{fill:#DAEAE9;}
	.st3{fill:#008480;}
	.st4{fill:#249690;}
	.st5{fill:#066D68;}
</style>
<g>
	<ellipse class="st0" cx="128.17" cy="313.69" rx="128.08" ry="57.42"/>
	<path class="st1" d="M189.61,263.12c-24.29,30.7-46.64,54.28-51.9,59.76c-2.47,2.56-5.96,4.06-9.54,4.06
		c-3.58,0-7.07-1.5-9.54-4.06c-5.26-5.48-27.6-29.06-51.9-59.76c18.15-4.37,39.04-6.85,61.44-6.85S171.45,258.75,189.61,263.12z"/>
	<path class="st2" d="M128.17,0.11C59.98,0.11,4.5,55.59,4.5,123.78c0,66.87,115.56,187.86,120.48,192.98
		c0.83,0.87,1.98,1.36,3.18,1.36c1.2,0,2.35-0.49,3.18-1.36c4.92-5.12,120.48-126.11,120.48-192.98
		C251.84,55.59,196.36,0.11,128.17,0.11z"/>
	<polygon class="st1" points="181.17,57.53 75.17,57.53 61.92,84.03 61.92,88.44 194.42,88.44 194.42,84.03 	"/>
	<polygon class="st3" points="119.34,57.53 114.92,84.03 88.42,84.03 97.25,57.53 	"/>
	<polygon class="st3" points="167.92,84.03 141.42,84.03 137,57.53 159.09,57.53 	"/>
	<path class="st0" d="M181.17,92.86h-106c-2.44,0-4.42,1.98-4.42,4.42v83.92c0,2.44,1.98,4.42,4.42,4.42h106
		c2.44,0,4.42-1.98,4.42-4.42V97.28C185.59,94.84,183.61,92.86,181.17,92.86z"/>
	<path class="st3" d="M152.91,132.7c-9.18,0.9-15.9,9.15-15.9,18.37v34.55h35.33v-35.33C172.34,139.95,163.44,131.67,152.91,132.7z"
		/>
	<path class="st3" d="M123.75,123.78H88.42c-2.44,0-4.42,1.98-4.42,4.42v26.5c0,2.44,1.98,4.42,4.42,4.42h35.33
		c2.44,0,4.42-1.98,4.42-4.42v-26.5C128.17,125.76,126.19,123.78,123.75,123.78z M119.34,137.03h-8.83v-4.42h8.83V137.03z
		 M101.67,132.61v4.42h-8.83v-4.42H101.67z M92.84,145.86h8.83v4.42h-8.83V145.86z M110.5,150.28v-4.42h8.83v4.42H110.5z"/>
	<path class="st4" d="M61.92,84.03v13.25c0,7.32,5.93,13.25,13.25,13.25c7.32,0,13.25-5.93,13.25-13.25
		c0,7.32,5.93,13.25,13.25,13.25c7.32,0,13.25-5.93,13.25-13.25c0,7.32,5.93,13.25,13.25,13.25c7.32,0,13.25-5.93,13.25-13.25
		c0,7.32,5.93,13.25,13.25,13.25c7.32,0,13.25-5.93,13.25-13.25c0,7.32,5.93,13.25,13.25,13.25c7.32,0,13.25-5.93,13.25-13.25V84.03
		C165.8,84.03,90.59,84.03,61.92,84.03z"/>
	<path class="st5" d="M114.92,84.03h-26.5v23.5c0,1.66,1.34,3,3,3h20.5c1.66,0,3-1.34,3-3V84.03z"/>
	<path class="st5" d="M167.92,84.03h-26.5v23.5c0,1.66,1.34,3,3,3h20.5c1.66,0,3-1.34,3-3V84.03z"/>
</g>
</svg>
