<?xml version="1.0" encoding="utf-8"?>
<!-- Generator: Adobe Illustrator 26.0.1, SVG Export Plug-In . SVG Version: 6.00 Build 0)  -->
<svg version="1.1" id="Capa_1" xmlns="http://www.w3.org/2000/svg" xmlns:xlink="http://www.w3.org/1999/xlink" x="0px" y="0px"
	 viewBox="0 0 250 182" style="enable-background:new 0 0 250 182;" xml:space="preserve">
<style type="text/css">
	.st0{fill:#33CCCC;}
</style>
<path class="st0" d="M241.59,82.59H31.25l79.16-67.44c3.54-3.01,3.96-8.32,0.95-11.85c-3.01-3.54-8.32-3.95-11.85-0.95L2.96,84.6
	c-0.08,0.07-0.13,0.15-0.21,0.22c-0.26,0.24-0.5,0.5-0.72,0.77c-0.15,0.17-0.3,0.34-0.43,0.52c-0.22,0.3-0.4,0.62-0.57,0.95
	c-0.09,0.18-0.2,0.34-0.29,0.53c-0.17,0.39-0.3,0.8-0.41,1.22c-0.04,0.15-0.1,0.28-0.13,0.43C0.07,89.8,0,90.39,0,91
	s0.07,1.19,0.19,1.76c0.03,0.15,0.09,0.28,0.13,0.43c0.11,0.42,0.24,0.83,0.41,1.22c0.08,0.18,0.19,0.35,0.29,0.53
	c0.18,0.33,0.36,0.65,0.57,0.95c0.13,0.18,0.28,0.35,0.43,0.52c0.23,0.27,0.46,0.53,0.72,0.77c0.07,0.07,0.13,0.15,0.21,0.22
	l96.54,82.25c1.58,1.35,3.52,2.01,5.45,2.01c2.38,0,4.74-1,6.41-2.96c3.01-3.54,2.59-8.84-0.95-11.85L31.25,99.41h210.34
	c4.64,0,8.41-3.77,8.41-8.41C250,86.35,246.23,82.59,241.59,82.59z"/>
</svg>
