<?xml version="1.0" encoding="utf-8"?>
<!-- Generator: Adobe Illustrator 26.0.1, SVG Export Plug-In . SVG Version: 6.00 Build 0)  -->
<svg version="1.1" id="Capa_1" xmlns="http://www.w3.org/2000/svg" xmlns:xlink="http://www.w3.org/1999/xlink" x="0px" y="0px"
	 viewBox="0 0 250 195" style="enable-background:new 0 0 250 195;" xml:space="preserve">
<style type="text/css">
	.st0{fill:#C9D0D6;}
</style>
<path class="st0" d="M250,99.27c0-3.33-1.57-6.27-3.97-8.21l-46.87-53.95c-2.03-2.32-4.97-3.65-8.05-3.64h-33.47V11.14
	c0-5.85-4.74-10.59-10.59-10.59H10.59C4.74,0.54,0,5.29,0,11.14v152.54c0,5.85,4.74,10.59,10.59,10.59h18.89
	c4.38,12.32,16.02,21.19,29.84,21.19c13.8-0.02,25.43-8.88,29.82-21.19h57.89h16.35c4.38,12.32,16.02,21.19,29.83,21.19
	c13.81-0.02,25.44-8.88,29.82-21.19h16.37c5.85,0,10.59-4.74,10.59-10.59V99.61c0-0.04-0.02-0.08-0.02-0.12
	C249.98,99.41,250,99.35,250,99.27z M186.44,54.65l29.49,34.03h-58.3V54.65H186.44z M21.19,21.73h115.26v22.33v55.21v53.81H89.16
	c-4.38-12.32-16.02-21.19-29.83-21.19s-25.46,8.87-29.84,21.19h-8.3V21.73z M59.32,174.27c-5.85,0-10.59-4.74-10.59-10.59
	c0-5.85,4.74-10.59,10.59-10.59c5.85,0,10.59,4.74,10.59,10.59C69.91,169.53,65.17,174.27,59.32,174.27z M193.22,174.27
	c-5.85,0-10.59-4.74-10.59-10.59c0-5.85,4.74-10.59,10.59-10.59c5.85,0,10.59,4.74,10.59,10.59
	C203.82,169.53,199.07,174.27,193.22,174.27z M223.05,153.09c-4.38-12.32-16.02-21.19-29.83-21.19s-25.46,8.87-29.83,21.19h-5.76
	v-43.22h71.19v43.22H223.05z"/>
</svg>
