<svg id="Capa_1" data-name="Capa 1" xmlns="http://www.w3.org/2000/svg" viewBox="0 0 600 467.8"><defs><style>.cls-1{fill:#c9d0d6;}</style></defs><path class="cls-1" d="M600,237a25.28,25.28,0,0,0-9.53-19.7L478,87.76A25.51,25.51,0,0,0,458.64,79H378.31V25.42A25.43,25.43,0,0,0,352.88,0H25.42A25.42,25.42,0,0,0,0,25.42V391.53A25.42,25.42,0,0,0,25.42,417H70.77a75.81,75.81,0,0,0,143.17,0H392.13a75.81,75.81,0,0,0,143.17,0h39.28A25.42,25.42,0,0,0,600,391.53V237.77c0-.11,0-.2,0-.3S600,237.13,600,237ZM447.46,129.87l70.76,81.66H378.31V129.87Zm-396.61-79H327.46V366.11H214a75.83,75.83,0,0,0-143.2,0H50.85ZM142.37,417a25.42,25.42,0,1,1,25.42-25.42A25.42,25.42,0,0,1,142.37,417Zm321.36,0a25.42,25.42,0,1,1,25.43-25.42A25.42,25.42,0,0,1,463.73,417Zm71.6-50.84a75.83,75.83,0,0,0-143.2,0H378.31V262.38H549.15V366.11Z"/></svg>