<?xml version="1.0" encoding="utf-8"?>
<!-- Generator: Adobe Illustrator 26.0.1, SVG Export Plug-In . SVG Version: 6.00 Build 0)  -->
<svg version="1.1" id="Capa_1" xmlns="http://www.w3.org/2000/svg" xmlns:xlink="http://www.w3.org/1999/xlink" x="0px" y="0px"
	 viewBox="0 0 220 224" style="enable-background:new 0 0 220 224;" xml:space="preserve">
<style type="text/css">
	.st0{fill:#C9D0D6;}
</style>
<g>
	<path class="st0" d="M214.72,41.62l-13.05-22.45c-7.09-11.99-19.97-19.36-33.9-19.4H52.24c-13.93,0.03-26.82,7.4-33.9,19.4
		L5.26,41.62C1.75,47.6-0.12,54.4-0.14,61.33v5.86c-0.03,0.77-0.03,1.53,0,2.3c0.43,12.95,7.92,23.99,18.64,29.6v85.81
		c0.02,21.72,17.62,39.32,39.34,39.34h104.35c21.7-0.04,39.28-17.64,39.3-39.34V97.93c11.03-5.76,18.59-17.26,18.68-30.56v-5.86
		C220.15,54.52,218.28,47.65,214.72,41.62z M18.88,61.33c0-3.61,0.96-7.16,2.78-10.27L34.74,28.8c3.65-6.19,10.31-10,17.5-10.01
		h115.54c7.19,0.02,13.84,3.82,17.5,10.01l13.05,22.25c1.83,3.11,2.8,6.66,2.81,10.27v5.86c0.03,0.51,0.03,1.03,0,1.54
		c-0.43,8.65-7.78,15.31-16.43,14.88c-8.65-0.43-15.31-7.78-14.88-16.43V53.22c0-5.25-4.26-9.51-9.51-9.51
		c-5.25,0-9.51,4.26-9.51,9.51v13.96c0.03,0.51,0.03,1.03,0,1.54c-0.43,8.65-7.78,15.31-16.43,14.88
		c-8.65-0.43-15.31-7.78-14.88-16.43V53.22c0-5.25-4.26-9.51-9.51-9.51c-5.25,0-9.51,4.26-9.51,9.51v13.96
		c0,8.64-7,15.64-15.64,15.64c-8.63,0-15.63-7-15.63-15.64V53.22c0-5.25-4.26-9.51-9.51-9.51s-9.51,4.26-9.51,9.51v13.96
		c0.03,0.51,0.03,1.03,0,1.54c-0.43,8.65-7.78,15.31-16.43,14.88c-8.65-0.43-15.31-7.78-14.88-16.43V61.33z M162.19,205.21H57.83
		c-11.22,0-20.31-9.1-20.31-20.32v-82.03c9.03-0.78,17.02-4.96,22.72-11.26c6.28,6.34,14.98,10.27,24.6,10.28
		c9.92-0.01,18.84-4.21,25.16-10.89c6.32,6.68,15.25,10.88,25.17,10.89c9.91-0.02,18.83-4.22,25.15-10.9
		c5.67,6,13.44,9.98,22.14,10.74v83.17C182.44,196.09,173.38,205.16,162.19,205.21z"/>
	<path class="st0" d="M110.18,118.28c-19.96,0-36.14,16.18-36.14,36.14v26.06c0,5.25,4.26,9.51,9.51,9.51
		c5.25,0,9.51-4.26,9.51-9.51v-26.06c0-9.46,7.66-17.12,17.12-17.12s17.12,7.66,17.12,17.12v26.06c0,5.25,4.26,9.51,9.51,9.51
		c5.25,0,9.51-4.26,9.51-9.51v-26.06C146.32,134.46,130.14,118.28,110.18,118.28z"/>
</g>
</svg>
