<svg id="Capa_1" data-name="Capa 1" xmlns="http://www.w3.org/2000/svg" viewBox="0 0 480.04 489.04"><defs><style>.cls-1{fill:#c9d0d6;}</style></defs><path class="cls-1" d="M468.19,91.18,439.76,42.27A86.12,86.12,0,0,0,365.91,0H114.18A86,86,0,0,0,40.32,42.27L11.81,91.18A85.51,85.51,0,0,0,0,134.11v12.77c0,1.67,0,3.33,0,5a75.54,75.54,0,0,0,40.61,64.49v187A85.8,85.8,0,0,0,126.36,489H353.72a85.81,85.81,0,0,0,85.63-85.71V213.87A75.63,75.63,0,0,0,480,147.29V134.53A85.59,85.59,0,0,0,468.19,91.18ZM41.48,134.11a44.34,44.34,0,0,1,6.05-22.38L76.05,63.24a44.35,44.35,0,0,1,38.13-21.8H365.91A44.44,44.44,0,0,1,404,63.24l28.43,48.49a44.4,44.4,0,0,1,6.13,22.38v12.77a31.38,31.38,0,0,1,0,3.36,34.15,34.15,0,1,1-68.21-3.36V116.46a20.73,20.73,0,1,0-41.45,0v30.42q.07,1.68,0,3.36a34.15,34.15,0,0,1-68.22-3.36V116.46a20.72,20.72,0,1,0-41.44,0v30.42a34.07,34.07,0,0,1-68.13,0V116.46a20.73,20.73,0,1,0-41.45,0v30.42q.08,1.68,0,3.36a34.15,34.15,0,0,1-68.22-3.36ZM353.72,447.59H126.36A44.26,44.26,0,0,1,82.1,403.33V224.6a75.28,75.28,0,0,0,49.51-24.53A75.24,75.24,0,0,0,240,198.74a75.16,75.16,0,0,0,109.64,0,75.4,75.4,0,0,0,48.24,23.41v181.2A44.33,44.33,0,0,1,353.72,447.59Z"/><path class="cls-1" d="M240.42,258.19a78.75,78.75,0,0,0-78.75,78.75v56.78a20.73,20.73,0,0,0,41.45,0V336.94a37.3,37.3,0,1,1,74.59,0v56.78a20.73,20.73,0,0,0,41.45,0V336.94A78.75,78.75,0,0,0,240.42,258.19Z"/></svg>