<?xml version="1.0" encoding="utf-8"?>
<!-- Generator: Adobe Illustrator 26.0.1, SVG Export Plug-In . SVG Version: 6.00 Build 0)  -->
<svg version="1.1" id="Capa_1" xmlns="http://www.w3.org/2000/svg" xmlns:xlink="http://www.w3.org/1999/xlink" x="0px" y="0px"
	 viewBox="0 0 1931 560" style="enable-background:new 0 0 1931 560;" xml:space="preserve">
<style type="text/css">
	.st0{opacity:0.48;}
	.st1{fill:none;}
	.st2{fill:#8497A5;}
	.st3{font-family:'Montserrat-Regular';}
	.st4{font-size:79.8777px;}
	.st5{opacity:0.48;fill:#8497A5;}
	.st6{opacity:0.35;}
</style>
<g>
	<g class="st0">
		<rect x="153.04" y="105.65" class="st1" width="1243.1" height="119.82"/>
		<text transform="matrix(1 0 0 1 153.0439 164.9146)" class="st2 st3 st4">Dirección</text>
	</g>
	<path class="st5" d="M1802.39,257.91h-620.91v-4.99h620.91c68.16,0,123.62-55.46,123.62-123.62c0-68.17-55.46-123.62-123.62-123.62
		H129.39C61.23,5.68,5.77,61.13,5.77,129.3c0,68.17,55.46,123.62,123.62,123.62h942.25v4.99H129.39
		c-70.92,0-128.61-57.69-128.61-128.61S58.47,0.68,129.39,0.68h1672.99c70.92,0,128.61,57.7,128.61,128.61
		C1931,200.22,1873.31,257.91,1802.39,257.91z"/>
	<g class="st6">
		<g>
			<path class="st2" d="M1305.17,356.26c0-1.78-0.89-10.67-8.89-19.57c-8.45-9.78-21.79-15.12-39.14-16.45c-1.78-2.67-4-5.34-7.56-8
				c-9.78-7.56-24.9-11.56-44.47-12.01c-1.78-2.22-4.89-4.89-8.45-7.56c-8.89-6.23-20.01-9.78-33.8-11.12v-36.03
				c0-3.56,0.44-18.68-9.78-29.35c-4.45-4.89-12.9-10.67-27.13-10.67c-14.68,0-23.13,5.78-28.02,10.67
				c-9.34,10.23-9.34,23.57-9.34,26.69v127.19c-8.45-8.89-17.79-18.68-23.13-22.24c-11.12-8.45-32.02-4-44.03,4.89
				c-11.56,8.45-15.57,21.35-11.12,33.8c8,22.24,28.02,44.47,32.91,49.81c4.45,8.45,24.46,45.36,42.25,58.71
				c9.34,7.12,16.45,36.47,18.23,55.15l0.89,9.78h168.11v-44.03c2.22-6.23,7.56-19.57,13.34-25.79
				c13.79-13.79,18.23-48.48,18.23-59.15v-74.27L1305.17,356.26z M1283.38,430.09c0,12.9-5.34,37.36-12.01,44.03
				c-11.56,11.56-18.68,33.8-19.12,36.02l-0.44,1.33v25.79h-127.19c-0.89-4.89-1.78-11.12-3.56-17.79
				c-5.34-21.35-12.45-35.13-21.79-42.25c-12.9-9.78-31.13-41.36-36.91-52.92l-1.78-2.67c0-0.44-21.79-22.68-29.35-43.14
				c-0.89-2.67-0.89-4.89,2.22-8c5.78-5.34,16.9-6.67,19.57-5.78c6.67,5.34,27.13,27.13,38.69,40.02l19.12,21.35l0.01-183.68v-0.89
				c0-1.78,0.44-7.56,3.56-10.67c2.22-2.67,6.23-4,12.01-4c4.89,0,8.45,1.33,11.12,3.56c3.56,4,4,11.12,4,13.79v115.19h21.79
				l0-56.04c20.01,2.22,25.79,10.67,26.69,12.01l0.89,2.22v41.81h21.79v-36.91c18.68,1.78,25.79,7.56,27.57,10.23v42.25h21.79
				v-32.46c19.12,2.67,22.24,12.9,22.68,15.12l0,72.49L1283.38,430.09z"/>
		</g>
	</g>
</g>
</svg>
